<svg xmlns="http://www.w3.org/2000/svg" width="400" height="400">
  <ellipse style="stroke-width: 44; fill: white; stroke: red;" cx="200" cy="200" rx="178" ry="178" />
  <line style="stroke-width: 23; stroke: red; stroke-linecap: round;" x1="67" y1="104" x2="267" y2="254" />
  <path style="stroke-width: 0; fill: black;" d=" M 242 217 L203 188 C 215 187, 237 136, 193 127 L 146 127 L 146 145 L 101 111 L 101 89 L 205 89 C 269 93, 286 173, 242 217 Z" />
  <path style="stroke-width: 0; fill: black" d=" M 101 306 L 101 150 L 146 182 L 146 191 L 158 191 L 209 229 L 146 229 L 146 306 Z" />
  <path style="stroke-width: 0; fill: red;" d=" M 205 299 L 237 307 L 342 225 L 303 215 L 276 239 C 292 259, 272 282, 250 261 Z" />
  <path style="stroke-width: 0; fill: red" d=" M 205 302 L 205 321 L 237 332 L 345 244 L 345 227 L 237 310 Z" />
</svg>
